<svg width="16" height="14" viewBox="0 0 16 14" fill="none" xmlns="http://www.w3.org/2000/svg">
<path d="M0.766527 2.46992C0.766527 2.01815 0.93588 1.58489 1.23733 1.26544C1.53878 0.945991 1.94764 0.766527 2.37395 0.766527H13.6259C14.0523 0.766527 14.4611 0.945991 14.7626 1.26544C15.064 1.58489 15.2334 2.01815 15.2334 2.46992V10.9869C15.2334 11.4387 15.064 11.8719 14.7626 12.1914C14.4611 12.5108 14.0523 12.6903 13.6259 12.6903H2.37395C1.94764 12.6903 1.53878 12.5108 1.23733 12.1914C0.93588 11.8719 0.766527 11.4387 0.766527 10.9869V2.46992Z" stroke="#2F80ED" stroke-width="1.5" stroke-linecap="round" stroke-linejoin="round"/>
<path d="M0.766527 2.46988L7.99995 7.58006L15.2334 2.46988" stroke="#2F80ED" stroke-width="1.5" stroke-linecap="round" stroke-linejoin="round"/>
</svg>
